<?xml version="1.0" encoding="UTF-8" standalone="no"?>
<!-- Created with Inkscape (http://www.inkscape.org/) -->

<svg
   xmlns:dc="http://purl.org/dc/elements/1.1/"
   xmlns:cc="http://creativecommons.org/ns#"
   xmlns:rdf="http://www.w3.org/1999/02/22-rdf-syntax-ns#"
   xmlns:svg="http://www.w3.org/2000/svg"
   xmlns="http://www.w3.org/2000/svg"
   xmlns:sodipodi="http://sodipodi.sourceforge.net/DTD/sodipodi-0.dtd"
   xmlns:inkscape="http://www.inkscape.org/namespaces/inkscape"
   version="1.1"
   id="svg2"
   xml:space="preserve"
   width="793.70001"
   height="500"
   viewBox="0 0 793.70001 500"
   sodipodi:docname="BEL3S-LOGO-barevne.svg"
   inkscape:version="0.92.0 r15299"><metadata
     id="metadata8"><rdf:RDF><cc:Work
         rdf:about=""><dc:format>image/svg+xml</dc:format><dc:type
           rdf:resource="http://purl.org/dc/dcmitype/StillImage" /><dc:title></dc:title></cc:Work></rdf:RDF></metadata><defs
     id="defs6"><clipPath
       clipPathUnits="userSpaceOnUse"
       id="clipPath18"><path
         d="M 0,595.275 H 595.275 V 0 H 0 Z"
         id="path16"
         inkscape:connector-curvature="0" /></clipPath></defs><sodipodi:namedview
     pagecolor="#ffffff"
     bordercolor="#666666"
     borderopacity="1"
     objecttolerance="10"
     gridtolerance="10"
     guidetolerance="10"
     inkscape:pageopacity="0"
     inkscape:pageshadow="2"
     inkscape:window-width="1920"
     inkscape:window-height="1017"
     id="namedview4"
     showgrid="false"
     inkscape:zoom="1.1893662"
     inkscape:cx="480.25898"
     inkscape:cy="263.16991"
     inkscape:window-x="-8"
     inkscape:window-y="-8"
     inkscape:window-maximized="1"
     inkscape:current-layer="g12" /><g
     id="g10"
     inkscape:groupmode="layer"
     inkscape:label="BEL3S-LOGO-barevne"
     transform="matrix(1.3333333,0,0,-1.3333333,0,499.99999)"><g
       id="g12"><g
         id="g14"
         clip-path="url(#clipPath18)"
         transform="matrix(1.2801806,0,0,1.3037455,-82.45753,-207.80974)"><g
           id="g20"
           transform="translate(349.0781,409.0659)"><path
             d="m 0,0 c 0.427,2.874 0.853,5.748 1.279,8.621 0.917,6.178 3.141,8.882 8.987,11.009 9.396,3.419 19.463,5.188 29.469,4.546 1.466,-0.094 2.932,-0.188 4.398,-0.282 5.824,-0.374 10.206,-3.753 9.274,-10.039 -0.275,-1.857 -0.552,-3.715 -0.827,-5.572 -0.043,-0.29 -0.086,-0.58 -0.129,-0.87 4.775,-0.02 9.53,-0.601 14.151,-1.874 9.91,-2.733 12.438,-7.499 9.547,-17.293 -0.247,-0.837 -0.494,-1.675 -0.741,-2.511 4.394,-0.893 8.656,-2.292 12.661,-4.369 8.818,-4.57 10.353,-9.074 6.23,-18.116 -1.886,-4.137 -3.772,-8.272 -5.658,-12.407 -0.848,-2.235 -1.695,-4.48 -2.54,-6.732 22.708,13.877 52.969,18.217 78.385,15.495 8.389,-0.898 14.945,-7.557 11.658,-17.876 -3.749,-11.769 -11.344,-23.82 -18.962,-33.479 -3.728,-4.727 -6.655,-5.681 -12.066,-5.186 -2.833,0.248 -9.387,-0.255 -16.123,-1.236 0.591,-0.28 1.162,-0.575 1.709,-0.887 9.857,-5.627 15.54,-14.569 15.087,-26.131 -0.107,-2.765 -0.5,-5.51 -1.161,-8.195 -4.659,-18.922 -21.809,-32.424 -38.137,-41.31 -13.458,-7.323 -34.694,-15.65 -50.108,-17.026 -11.171,-0.998 -15.112,0.916 -15.047,9.563 0.02,2.82 0.051,5.638 0.102,8.454 -0.625,-1.499 -1.253,-2.994 -1.885,-4.483 -3.123,-7.375 -8.152,-11.738 -14.437,-16.355 -8.101,-5.95 -17.028,-10.759 -24.937,-16.952 -1.782,-1.394 -3.427,-3.212 -4.961,-4.875 -3.008,-3.258 -7.611,-8.799 -12.504,-8.398 -5.481,0.449 -7.808,7.489 -9.001,11.901 -1.635,6.046 -3.565,11.991 -5.085,18.06 -0.275,-1.049 -0.568,-2.102 -0.879,-3.16 -2.171,-8.102 -5.938,-9.363 -12.138,-9.85 -19.826,-1.555 -40.436,-5.947 -59.736,-10.623 -4.885,-1.184 -9.801,-2.25 -14.655,-3.551 -3.89,-1.042 -5.037,0.749 -4.74,2.666 0.089,0.576 0.179,1.154 0.269,1.731 -17.855,-1.882 -36.069,-5.609 -53.369,-9.572 -4.342,-0.994 -8.724,-1.831 -13.027,-2.983 -4.963,-1.33 -6.49,0.476 -5.918,4.117 0.165,1.051 0.334,2.092 0.508,3.119 -18.757,-12.774 -44.224,-19.103 -63.623,-19.103 -2.538,0 -5.077,0.057 -7.612,0.173 -13.074,0.592 -14.711,2.325 -13.04,15.492 2.846,22.434 5.949,44.891 9.748,67.185 2.496,14.656 5.287,29.408 8.931,43.826 1.646,6.509 4.222,8.51 9.951,9.971 17.497,4.46 34.414,9.404 52.694,8.319 8.452,-0.502 17.631,-1.944 24.695,-6.666 0.26,0.967 0.524,1.932 0.794,2.895 1.802,6.435 4.511,8.211 9.723,9.597 21.61,5.748 43.897,7.846 66.15,9.115 4.268,3.409 27.999,7.211 34.01,7.794 -1.99,7.664 -1.97,11.792 1.187,19.518 5.515,13.493 18.35,22.61 31.98,26.781 l -0.044,7.809 c -0.032,5.63 2.294,9.494 7.208,12.252 C -15.33,-4.04 -7.814,-1.507 0,0"
             style="fill:#000000;fill-opacity:1;fill-rule:evenodd;stroke:none"
             id="path22"
             inkscape:connector-curvature="0" /></g><g
           id="g24"
           transform="translate(336.4424,202.0254)"><path
             d="m 0,0 c 1.009,2.851 3.024,4.797 5.165,6.561 8.249,6.799 17.218,11.313 25.655,17.509 3.118,2.29 6.858,4.9 8.56,8.918 4.13,9.75 8.07,19.526 11.64,29.341 0.761,2.095 0.244,3.202 -1.049,3.957 -6.474,3.777 -20.303,2.075 -28.977,1.701 9.955,4.901 35.883,16.816 43.973,26.3 0.971,1.139 1.605,2.125 2.161,3.505 12.194,30.257 11.357,35.246 13.235,40.92 1.004,3.03 -0.559,4.004 -2.469,4.751 -6.232,2.437 -15.484,1.453 -22.855,0.731 -23.476,-2.299 -65.874,-16.887 -86.166,-12.071 -1.049,1.835 -3.222,11.029 -4.177,14.244 -1.576,-3.453 -2.293,-6.755 -1.648,-9.659 2.551,-11.481 5.791,-22.555 9.022,-33.546 1.237,-4.203 5.581,-4.715 9.344,-5.185 6.002,-0.751 42.55,2.648 48.769,3.771 -13.467,-6.463 -27.032,-12.407 -40.247,-20.99 -3.184,-2.069 -9.589,-6.143 -8.985,-10.311 1.399,-9.635 4.407,-18.28 7.259,-26.944 0.592,-1.797 2.794,-1.979 4.424,-2.338 C 0.646,39.398 9.601,39.967 18.197,39.916 12.484,36.664 6.771,33.491 1.162,29.656 -0.36,28.616 -6.479,24.42 -5.97,21.947 -4.403,14.342 -1.982,7.331 0,0"
             style="fill:#e51c24;fill-opacity:1;fill-rule:evenodd;stroke:none"
             id="path26"
             inkscape:connector-curvature="0" /></g><g
           id="g28"
           transform="translate(364.0908,415.6494)"><path
             d="m 0,0 c 8.131,2.958 16.214,4.226 23.834,3.737 -2.284,-15.392 -4.567,-30.783 -6.852,-46.175 2.767,9.374 5.534,18.748 8.299,28.121 8.23,1.599 15.848,1.806 22.539,-0.091 -4.062,-13.765 -8.124,-27.53 -12.186,-41.295 l 10.179,22.322 c 7.699,-0.031 14.852,-1.051 20.854,-4.162 l -11.037,-24.205 -0.056,0.024 c -7.426,3.018 -17.38,2.029 -26.161,1.176 -13.497,-1.309 -28.399,-5.153 -42.146,-8.039 -10.796,-2.266 -28.242,-5.946 -39.326,-4.758 -0.193,1.073 -0.355,2.168 -0.509,3.071 -0.402,2.336 -0.753,4.719 -1.217,7.025 l -1.546,7.684 c 6.64,4.386 13.724,7.357 21.028,9.622 l 3.882,-20.118 c -0.074,13.117 -0.147,26.234 -0.222,39.351 7.588,4.135 15.506,6.364 23.642,7.331 0.05,-8.932 0.1,-17.864 0.15,-26.796 C -4.567,-30.784 -2.284,-15.392 0,0"
             style="fill:#fddd10;fill-opacity:1;fill-rule:evenodd;stroke:none"
             id="path30"
             inkscape:connector-curvature="0" /></g><g
           id="g32"
           transform="translate(433.2979,334.8232)"><path
             d="M 0,0 C 21.05,18.336 54.776,22.727 78.8,20.153 75.521,9.861 68.304,-1.171 62.147,-8.976 c -7.899,0.721 -47.717,-2.868 -47.624,-14.14 0.063,-7.436 19.981,-10.721 25.13,-13.661 5.237,-2.989 8.595,-7.073 8.154,-13.63 -0.357,-32.109 -59.667,-51.817 -76.869,-53.352 0.072,9.198 0.629,22.718 2.61,31.916 13.62,-0.738 41.155,4.568 40.976,14.996 -0.151,8.837 -27.92,5.544 -31.203,23.11 C -18.324,-24.933 -11.878,-10.346 0,0 m -331.52,-44.472 c 16.86,4.298 32.274,8.879 48.476,7.917 15.383,-0.913 23.057,-4.872 22.937,-14.588 0,-13.741 -9.558,-27.507 -28.703,-41.274 12.007,0.741 18.967,-2.277 20.818,-8.976 0.358,-1.456 0.538,-2.964 0.538,-4.5 0,-30.438 -44.793,-48.105 -75.445,-48.105 -2.33,0 -4.66,0.053 -6.989,0.158 6.814,53.713 12.827,87.446 18.368,109.368 m 17.295,-63.586 c -0.926,-3.945 -2.472,-10.53 -3.927,-17.046 16.457,4.449 27.192,10.792 27.192,16.458 0,2.065 -2.032,3.125 -6.123,3.125 -3.614,0 -10.362,-1.001 -17.142,-2.537 m 11.198,41.772 c -2.068,-7.155 -3.931,-13.788 -5.861,-20.859 8.902,4.411 15.359,10.402 18.972,16.517 0.808,1.351 1.225,2.436 1.225,3.257 0,1.747 -1.523,2.647 -4.539,2.647 -2.33,0 -5.616,-0.529 -9.797,-1.562 m 83.959,12.429 c -1.76,-6.082 -2.943,-11.766 -4.291,-17.197 9.773,2.48 18.8,3.965 27.662,5.228 0.242,-5.992 -0.291,-13.07 -1.567,-21.187 -12.669,-1.369 -23.175,-3.565 -30.829,-5.353 -0.914,-3.998 -1.597,-7.909 -2.372,-11.917 10.664,1.304 21.327,2.61 31.991,3.915 1.058,-10.143 0.541,-19.28 -2.247,-28.546 -16.633,-1.232 -37.698,-4.74 -63.195,-10.581 8.261,53.257 14.327,87.367 20.441,109.205 16.774,4.462 39.998,7.338 57.822,8.356 -0.212,-9.151 -0.692,-19.023 -2.275,-28.545 -12.001,-0.317 -21.17,-1.528 -31.14,-3.378 m 49.564,35.532 c 10.291,3.117 20.582,4.471 30.874,5.077 -8.638,-29.376 -15.284,-56.473 -19.94,-81.288 10.526,1.43 21.052,2.859 31.579,4.29 1.323,-9.864 0.428,-18.964 -2.696,-29.595 -16.263,-1.275 -36.908,-4.914 -61.901,-10.969 8.31,53.58 15.932,90.664 22.084,112.485"
             style="fill:#fddd10;fill-opacity:1;fill-rule:nonzero;stroke:none"
             id="path34"
             inkscape:connector-curvature="0" /></g></g></g></g></svg>