<?xml version="1.0" standalone="no"?>
<!DOCTYPE svg PUBLIC "-//W3C//DTD SVG 20010904//EN"
 "http://www.w3.org/TR/2001/REC-SVG-20010904/DTD/svg10.dtd">
<svg version="1.0" xmlns="http://www.w3.org/2000/svg"
 width="350.000000pt" height="350.000000pt" viewBox="0 0 350.000000 350.000000"
 preserveAspectRatio="xMidYMid meet">
<metadata>
Created by potrace 1.11, written by Peter Selinger 2001-2013
</metadata>
<g transform="translate(0.000000,350.000000) scale(0.100000,-0.100000)"
fill="#000000" stroke="none">
<path d="M2325 2773 c-11 -2 -48 -14 -82 -25 -51 -18 -65 -27 -78 -54 -8 -17
-15 -42 -15 -54 0 -32 -18 -60 -40 -60 -27 0 -97 -29 -142 -58 -38 -25 -52
-57 -50 -117 1 -27 -4 -33 -60 -59 -124 -57 -210 -182 -202 -288 3 -28 0 -49
-6 -49 -5 -1 -13 -2 -17 -3 -5 -1 -30 -5 -58 -10 -27 -4 -81 -17 -120 -28 -38
-11 -92 -22 -120 -24 -193 -16 -219 -19 -345 -45 -120 -25 -145 -38 -165 -86
-14 -33 -15 -33 -38 -18 -50 33 -192 46 -307 30 -25 -4 -54 -8 -66 -10 -41 -6
-217 -57 -235 -68 -10 -6 -21 -23 -25 -37 -4 -14 -8 -29 -10 -35 -6 -18 -55
-259 -59 -290 -2 -16 -6 -39 -9 -50 -2 -11 -7 -40 -10 -65 -3 -25 -8 -54 -10
-66 -2 -12 -7 -45 -11 -74 -4 -29 -8 -61 -10 -70 -2 -9 -6 -41 -10 -71 -3 -30
-8 -66 -11 -80 -3 -14 -7 -60 -9 -102 -5 -100 -6 -100 183 -94 170 4 235 19
362 81 47 22 89 43 93 45 5 2 8 -3 6 -10 -5 -38 0 -42 44 -34 51 8 57 10 82
18 11 3 31 8 45 11 14 2 59 12 100 21 41 9 89 18 105 21 17 2 44 6 60 8 17 3
50 8 74 12 31 5 42 4 37 -4 -17 -28 30 -28 142 0 189 46 300 67 442 83 80 9
85 12 105 55 19 43 23 45 28 14 1 -10 5 -23 8 -29 3 -5 12 -36 19 -67 7 -32
17 -58 22 -58 4 0 8 -6 8 -13 0 -8 11 -19 24 -25 31 -14 60 1 128 70 29 29 69
62 88 72 19 11 37 22 40 25 3 3 28 21 55 40 65 43 133 117 144 156 8 27 9 26
10 -20 1 -28 8 -60 16 -73 14 -19 23 -21 83 -18 249 13 582 205 667 383 55
116 43 226 -32 300 -24 25 -43 47 -40 49 2 3 39 5 81 6 l77 1 38 46 c34 41 93
128 96 141 1 3 11 27 23 53 32 71 38 121 18 152 -31 47 -61 54 -217 51 -173
-4 -283 -29 -412 -92 l-47 -23 6 27 c4 15 13 36 21 48 7 11 10 24 6 27 -3 4
-2 7 4 7 9 0 18 19 29 65 1 6 3 15 5 20 2 6 -2 24 -9 41 -9 22 -27 37 -63 52
-27 12 -56 22 -65 22 -12 0 -14 10 -11 55 3 45 1 58 -17 74 -27 25 -70 42
-121 45 l-40 3 -2 47 c-2 69 -19 80 -122 81 -47 1 -95 0 -106 -2z"/>
</g>
</svg>
